<svg xmlns="http://www.w3.org/2000/svg" width="340" height="200" viewBox="0 0 340 200"><style>* {
          font-family: 'Segoe UI', Ubuntu, "Helvetica Neue", Sans-Serif
        }</style><g class="gpsc-root"><rect x="1" y="1" rx="5" ry="5" height="99%" width="99.41176470588235%" stroke="#e4e2e2" stroke-width="1" fill="#ffffff" stroke-opacity="1"></rect><text x="30" y="40" class="gpsc-item" style="--gpsc-i: 0; font-size: 22px; fill: #586e75;">Top Languages by Commit</text><g transform="translate(0,40)"><g transform="translate(40,0)"><rect y="18" width="14" height="14" class="gpsc-item" style="--gpsc-i: 0; stroke-width: 1px;" fill="#f1e05a" stroke="#ffffff"></rect><rect y="43.2" width="14" height="14" class="gpsc-item" style="--gpsc-i: 1; stroke-width: 1px;" fill="#3572A5" stroke="#ffffff"></rect><rect y="68.4" width="14" height="14" class="gpsc-item" style="--gpsc-i: 2; stroke-width: 1px;" fill="#3D6117" stroke="#ffffff"></rect><rect y="93.60000000000002" width="14" height="14" class="gpsc-item" style="--gpsc-i: 3; stroke-width: 1px;" fill="#b07219" stroke="#ffffff"></rect><rect y="118.80000000000001" width="14" height="14" class="gpsc-item" style="--gpsc-i: 4; stroke-width: 1px;" fill="#3178c6" stroke="#ffffff"></rect><text x="16.8" y="30" class="gpsc-item" style="--gpsc-i: 0; fill: #586e75; font-size: 14px;">JavaScript</text><text x="16.8" y="55.2" class="gpsc-item" style="--gpsc-i: 1; fill: #586e75; font-size: 14px;">Python</text><text x="16.8" y="80.4" class="gpsc-item" style="--gpsc-i: 2; fill: #586e75; font-size: 14px;">TeX</text><text x="16.8" y="105.60000000000002" class="gpsc-item" style="--gpsc-i: 3; fill: #586e75; font-size: 14px;">Java</text><text x="16.8" y="130.8" class="gpsc-item" style="--gpsc-i: 4; fill: #586e75; font-size: 14px;">TypeScript</text></g><g transform="translate( 230, 80 )"><g class="arc" style="--gpsc-i: 0;"><path d="M3.67394039744206e-15,-60A60,60,0,0,1,28.46373148403578,52.8187087120152L16.60384336568754,30.8109134153422A35,35,0,0,0,2.1431318985078682e-15,-35Z" style="fill: #f1e05a; stroke-width: 2px;" stroke="#ffffff"></path></g><g class="arc" style="--gpsc-i: 1;"><path d="M28.46373148403578,52.8187087120152A60,60,0,0,1,-59.557859436535736,7.2705831497790685L-34.74208467131251,4.24117350403779A35,35,0,0,0,16.60384336568754,30.8109134153422Z" style="fill: #3572A5; stroke-width: 2px;" stroke="#ffffff"></path></g><g class="arc" style="--gpsc-i: 2;"><path d="M-59.557859436535736,7.2705831497790685A60,60,0,0,1,-33.20349295460069,-49.97527444260594L-19.36870422351707,-29.152243424853463A35,35,0,0,0,-34.74208467131251,4.24117350403779Z" style="fill: #3D6117; stroke-width: 2px;" stroke="#ffffff"></path></g><g class="arc" style="--gpsc-i: 3;"><path d="M-33.20349295460069,-49.97527444260594A60,60,0,0,1,-4.018228861739174,-59.86529743361079L-2.343966836014518,-34.921423502939625A35,35,0,0,0,-19.36870422351707,-29.152243424853463Z" style="fill: #b07219; stroke-width: 2px;" stroke="#ffffff"></path></g><g class="arc" style="--gpsc-i: 4;"><path d="M-4.018228861739174,-59.86529743361079A60,60,0,0,1,-6.431252637433369e-14,-60L-3.7515640385027985e-14,-35A35,35,0,0,0,-2.343966836014518,-34.921423502939625Z" style="fill: #3178c6; stroke-width: 2px;" stroke="#ffffff"></path></g></g></g></g></svg>